<svg xmlns="http://www.w3.org/2000/svg" version="1.1" xmlns:xlink="http://www.w3.org/1999/xlink" width="124.44" height="144"><svg xmlns:dc="http://purl.org/dc/elements/1.1/" xmlns:cc="http://creativecommons.org/ns#" xmlns:rdf="http://www.w3.org/1999/02/22-rdf-syntax-ns#" xmlns:svg="http://www.w3.org/2000/svg" xmlns="http://www.w3.org/2000/svg" xmlns:sodipodi="http://sodipodi.sourceforge.net/DTD/sodipodi-0.dtd" xmlns:inkscape="http://www.inkscape.org/namespaces/inkscape" viewBox="0 0 124.44 144.00" id="SvgjsSvg1059" version="1.1" sodipodi:docname="logo.svg" inkscape:version="0.92.3 (2405546, 2018-03-11)">
  <metadata id="SvgjsMetadata1058">
    <rdf:rdf>
      <cc:work rdf:about="">
        <dc:format>image/svg+xml</dc:format>
        <dc:type rdf:resource="http://purl.org/dc/dcmitype/StillImage"></dc:type>
        <dc:title></dc:title>
      </cc:work>
    </rdf:rdf>
  </metadata>
  <sodipodi:namedview pagecolor="#ffffff" bordercolor="#666666" borderopacity="1" objecttolerance="10" gridtolerance="10" guidetolerance="10" inkscape:pageopacity="0" inkscape:pageshadow="2" inkscape:window-width="1920" inkscape:window-height="1001" id="SvgjsSodipodi:namedview1057" showgrid="true" inkscape:zoom="3.0696785" inkscape:cx="78.333707" inkscape:cy="90.124797" inkscape:window-x="-9" inkscape:window-y="-9" inkscape:window-maximized="1" inkscape:current-layer="svg2" showguides="false">
    <inkscape:grid type="xygrid" id="SvgjsInkscape:grid1056" spacingx="0.16" spacingy="0.16" empspacing="4" units="pc"></inkscape:grid>
  </sodipodi:namedview>
  <defs id="SvgjsDefs1055">
    <style type="text/css" id="SvgjsStyle1054">
    line, polyline, path, rect, circle {
      fill: none;
      stroke: #000000;
      stroke-linecap: round;
      stroke-linejoin: round;
      stroke-miterlimit: 10.00;
    }
  </style>
  </defs>
  <rect width="100%" height="100%" style="stroke: none; fill: none;" id="SvgjsRect1053"></rect>
  <rect x="0.00" y="0.14" width="124.44" height="143.71" style="stroke-width: 1.07; stroke: none;" clip-path="url(#cpMHwxMjQuNDQxfDE0My44NTd8MC4xNDMxMzc=)" id="SvgjsRect1052"></rect>
  <rect x="-0.14" y="0.14" width="124.58" height="143.85" style="stroke-width: 1.07; stroke: none;" clip-path="url(#cpMHwxMjQuNDQxfDE0My45OTd8MC4xNDMxMzc=)" id="SvgjsRect1051"></rect>
  <polyline points="2.285 37.429 2.285 106.799 62.105 141.486 121.926 106.799 121.926 37.429 62.105 2.743 2.285 37.429" style="stroke:#008a00;stroke-width:4;fill:#dedccf;fill-opacity:1;fill-rule:nonzero;stroke-opacity:0.99004978" clip-path="url(#cpMHwxMjQuNDQxfDE0My45OTd8MC4xNDMxMzc=)" id="SvgjsPolyline1050"></polyline>
  <g transform="matrix(0.80644141,-0.13822538,0.13822538,0.80644141,-101.00767,18.236435)" id="SvgjsG1049">
    <path sodipodi:nodetypes="csssssscssccssscc" inkscape:connector-curvature="0" id="SvgjsPath1048" d="m 193.6,63.8 c 0,0 3.2,-13.6 15.2,-13.2 12,0.4 16.6,7.4 17.8,8.6 1.2,1.2 1.8,4.2 4.2,7.4 2.4,3.2 8.2,12.2 8.6,24.4 0.4,12.2 -4.2,17 -6,21.4 -1.8,4.4 -3,11.6 -1.6,14.4 1.4,2.8 8.6,19.8 8.6,19.8 0,0 -9.2,-18.6 -11.6,-19.8 -2.4,-1.2 -25.08151,-5.97412 -25.4,-4.8 -0.3625,1.33636 -2.6,7 -2.6,7 l 1.6,-7.6 c 0,0 -4,-1.6 -6.4,-3.6 -2.4,-2 -14.4,-19.2 -12.4,-31.2 2,-12 8.8,-22 12.2,-22 3.4,0 7.4,-0.8 7.4,-0.8 z" style="fill:#ebebeb;fill-opacity:1;stroke:#797979;stroke-width:5;stroke-linecap:butt;stroke-linejoin:miter;stroke-miterlimit:10;stroke-dasharray:none;stroke-opacity:1;paint-order:markers stroke fill"></path>
    <path sodipodi:nodetypes="cssssssccccccccccccccc" inkscape:connector-curvature="0" id="SvgjsPath1047" d="m 205.2,64.8 c 0,0 -8.58957,2.585613 -10.2,5.6 -7.8,14.6 -3.2,24.4 -0.8,31.4 2.4,7 10.64135,14.5742 15.2,13.4 13.2,-3.4 6.4,-30 10,-35.6 C 223,74 223,68.6 223,66.2 223,63.8 211,56 210,55 c -1,-1 -5.8,-7.8 -5.8,-7.8 l -11.8,-6 -7.2,-5.2 -11.8,-6.4 11,7.2 -12.4,6.6 10.4,-3.4 -8,9.6 12.4,-10.6 4.2,4.6 -12,11.6 13.6,-10 9.2,5.6 3.4,9 z" style="fill:#d0b972;fill-opacity:1;stroke:#998033;stroke-width:2.70000005;stroke-linecap:butt;stroke-linejoin:miter;stroke-miterlimit:10;stroke-dasharray:none;stroke-opacity:1;paint-order:markers stroke fill"></path>
    <circle r="3.3541019" cy="55.899998" cx="203.2" id="SvgjsCircle1046" style="fill:#000000;fill-opacity:1;fill-rule:nonzero;stroke:none;stroke-linecap:round;stroke-linejoin:round;stroke-miterlimit:10;stroke-opacity:1;paint-order:markers stroke fill"></circle>
    <circle r="1" cy="54.400002" cx="204.20001" id="SvgjsCircle1045" style="fill:#fefefe;fill-opacity:1;fill-rule:nonzero;stroke:none;stroke-linecap:round;stroke-linejoin:round;stroke-miterlimit:10;stroke-opacity:1;paint-order:markers stroke fill"></circle>
    <circle transform="rotate(-73.3495)" r="3.2" cy="245.94743" cx="-16.680294" id="SvgjsCircle1044" style="opacity:1;fill:#5e6d22;fill-opacity:0.775;fill-rule:nonzero;stroke:none;stroke-width:2.70000005;stroke-linecap:round;stroke-linejoin:round;stroke-miterlimit:10;stroke-dasharray:none;stroke-opacity:1;paint-order:markers stroke fill"></circle>
    <circle transform="rotate(-73.3495)" r="3.2" cy="245.94743" cx="-24.680294" id="SvgjsCircle1043" style="opacity:1;fill:#5e6d22;fill-opacity:0.775;fill-rule:nonzero;stroke:none;stroke-width:2.70000005;stroke-linecap:round;stroke-linejoin:round;stroke-miterlimit:10;stroke-dasharray:none;stroke-opacity:1;paint-order:markers stroke fill"></circle>
    <circle transform="rotate(-73.3495)" r="3.2" cy="245.94743" cx="-32.680294" id="SvgjsCircle1042" style="opacity:1;fill:#5e6d22;fill-opacity:0.775;fill-rule:nonzero;stroke:none;stroke-width:2.70000005;stroke-linecap:round;stroke-linejoin:round;stroke-miterlimit:10;stroke-dasharray:none;stroke-opacity:1;paint-order:markers stroke fill"></circle>
    <circle transform="rotate(-73.3495)" r="3.2" cy="245.94743" cx="-40.680294" id="SvgjsCircle1041" style="opacity:1;fill:#5e6d22;fill-opacity:0.775;fill-rule:nonzero;stroke:none;stroke-width:2.70000005;stroke-linecap:round;stroke-linejoin:round;stroke-miterlimit:10;stroke-dasharray:none;stroke-opacity:1;paint-order:markers stroke fill"></circle>
    <circle transform="rotate(-73.3495)" r="3.2" cy="239.45094" cx="-13.578824" id="SvgjsCircle1040" style="opacity:1;fill:#5e6d22;fill-opacity:0.775;fill-rule:nonzero;stroke:none;stroke-width:2.70000005;stroke-linecap:round;stroke-linejoin:round;stroke-miterlimit:10;stroke-dasharray:none;stroke-opacity:1;paint-order:markers stroke fill"></circle>
    <circle transform="rotate(-73.3495)" r="3.2" cy="239.45094" cx="-21.578823" id="SvgjsCircle1039" style="opacity:1;fill:#5e6d22;fill-opacity:0.775;fill-rule:nonzero;stroke:none;stroke-width:2.70000005;stroke-linecap:round;stroke-linejoin:round;stroke-miterlimit:10;stroke-dasharray:none;stroke-opacity:1;paint-order:markers stroke fill"></circle>
    <circle transform="rotate(-73.3495)" r="3.2" cy="239.45094" cx="-29.578823" id="SvgjsCircle1038" style="opacity:1;fill:#5e6d22;fill-opacity:0.775;fill-rule:nonzero;stroke:none;stroke-width:2.70000005;stroke-linecap:round;stroke-linejoin:round;stroke-miterlimit:10;stroke-dasharray:none;stroke-opacity:1;paint-order:markers stroke fill"></circle>
    <circle transform="rotate(-73.3495)" r="3.2" cy="239.45094" cx="-37.578823" id="SvgjsCircle1037" style="opacity:1;fill:#5e6d22;fill-opacity:0.775;fill-rule:nonzero;stroke:none;stroke-width:2.70000005;stroke-linecap:round;stroke-linejoin:round;stroke-miterlimit:10;stroke-dasharray:none;stroke-opacity:1;paint-order:markers stroke fill"></circle>
    <circle transform="rotate(-73.3495)" r="3.2" cy="233.25197" cx="-17.677273" id="SvgjsCircle1036" style="opacity:1;fill:#5e6d22;fill-opacity:0.775;fill-rule:nonzero;stroke:none;stroke-width:2.70000005;stroke-linecap:round;stroke-linejoin:round;stroke-miterlimit:10;stroke-dasharray:none;stroke-opacity:1;paint-order:markers stroke fill"></circle>
    <circle transform="rotate(-73.3495)" r="3.2" cy="233.25197" cx="-25.677273" id="SvgjsCircle1035" style="opacity:1;fill:#5e6d22;fill-opacity:0.775;fill-rule:nonzero;stroke:none;stroke-width:2.70000005;stroke-linecap:round;stroke-linejoin:round;stroke-miterlimit:10;stroke-dasharray:none;stroke-opacity:1;paint-order:markers stroke fill"></circle>
    <circle transform="rotate(-73.3495)" r="3.2" cy="233.25197" cx="-33.677273" id="SvgjsCircle1034" style="opacity:1;fill:#5e6d22;fill-opacity:0.775;fill-rule:nonzero;stroke:none;stroke-width:2.70000005;stroke-linecap:round;stroke-linejoin:round;stroke-miterlimit:10;stroke-dasharray:none;stroke-opacity:1;paint-order:markers stroke fill"></circle>
  </g>
  <path style="fill:#005172;fill-opacity:1;stroke:#ffffff;stroke-width:2;stroke-linecap:round;stroke-linejoin:round;stroke-miterlimit:10;stroke-dasharray:none;stroke-opacity:0.99004977;paint-order:markers stroke fill" d="m 59.102374,133.48469 -2.565921,-1.56739 2.11248,-3.41849 c 1.16187,-1.88018 2.414807,-3.8301 2.784302,-4.33316 0.369504,-0.50306 0.610915,-0.9158 0.536473,-0.9172 -0.07441,-0.001 -2.393609,1.30537 -5.153706,2.90392 l -5.018356,2.90646 -1.507132,-0.87986 c -0.828918,-0.48393 -1.379981,-0.99716 -1.224579,-1.14051 0.155401,-0.14336 3.119158,-1.83466 6.586117,-3.75845 3.466966,-1.92378 6.574253,-3.72348 6.905078,-3.99931 0.330833,-0.27585 2.024849,-3.04417 3.764496,-6.15185 1.739647,-3.10768 3.522098,-6.27422 3.961014,-7.03679 0.438915,-0.76256 1.309628,-2.28728 1.934926,-3.38826 0.625297,-1.10098 1.253514,-2.12483 1.396044,-2.27522 0.381038,-0.40204 5.109085,2.17883 4.906574,2.67833 -0.182674,0.45058 -6.004545,8.78167 -8.467126,12.11646 -0.844231,1.14323 -1.446157,2.08027 -1.337619,2.08231 0.108538,0.002 0.927738,-0.49256 1.820447,-1.09911 0.892708,-0.60655 4.792386,-2.9702 8.665946,-5.25255 l 7.042839,-4.14973 2.436568,1.2849 c 2.390624,1.26067 2.420817,1.29296 1.601134,1.71263 -4.346813,2.22548 -22.087393,11.44844 -22.507264,11.70104 -0.55936,0.33654 -7.371154,10.82024 -7.034558,10.82655 0.10332,0.002 4.208963,-3.13139 9.123659,-6.96294 L 78.8,118.4 l 1.821953,0.9979 1.821945,0.9979 -1.144384,0.83827 c -0.629418,0.46104 -1.537612,1.16564 -2.018212,1.56575 -0.839952,0.6993 -0.788837,0.69539 1.31838,-0.10092 1.20571,-0.45564 2.760036,-0.89377 3.454058,-0.97364 1.427409,-0.16426 2.982686,0.16555 2.973959,0.63065 -0.0032,0.17064 -1.5681,1.3497 -3.477548,2.62014 -3.41711,2.27354 -3.479308,2.29861 -3.95361,1.59367 -0.405861,-0.60322 -0.736894,-0.69653 -2.098301,-0.59145 -2.264301,0.17477 -4.950792,1.58704 -10.377531,5.45543 -2.57778,1.83753 -4.859133,3.40339 -5.069649,3.47967 -0.210522,0.0763 -1.537434,-0.56661 -2.948686,-1.42868 z m -15.136681,-8.86364 c -1.65015,-0.77728 -2.004393,-1.23001 -2.486306,-3.17751 -1.465989,-5.92429 7.48935,-20.33676 15.528852,-24.991731 3.681349,-2.131542 7.407022,-2.607989 9.250781,-1.183007 1.570151,1.213527 2.073469,2.723453 1.834368,5.503088 -0.5127,5.96042 -5.923801,14.27696 -13.113281,20.15432 -4.556739,3.72511 -8.290854,4.97774 -11.014414,3.69484 z m 5.789467,-4.13134 c 2.968145,-1.47786 7.62856,-6.69167 9.887519,-11.06162 1.412552,-2.73256 1.670075,-5.40854 0.601362,-6.24885 -0.935681,-0.73571 -2.645022,-0.70092 -4.263307,0.0868 -4.161263,2.02545 -10.5803,11.06103 -10.679988,15.03338 -0.05809,2.31593 2.085345,3.36991 4.454414,2.19033 z m -15.674467,-2.0654 c -0.580567,-0.37522 -0.847767,-0.78818 -0.731825,-1.13104 0.100439,-0.29699 2.548514,-5.46588 5.440172,-11.48638 2.89166,-6.0205 5.260094,-11.081203 5.263186,-11.245998 0.0031,-0.164799 -0.895841,-0.776119 -1.997624,-1.358487 -1.10179,-0.582367 -1.99975,-1.245531 -1.995469,-1.473693 0.01444,-0.769423 2.9312,-7.612772 3.242218,-7.606937 0.297212,0.0056 12.325158,6.311011 13.243946,6.942897 0.355868,0.244748 0.02704,1.008049 -1.551914,3.602735 -1.101892,1.810706 -2.149729,3.473863 -2.328533,3.695903 -0.245705,0.30513 -0.883927,0.10901 -2.613656,-0.80314 l -2.288571,-1.206846 -4.004267,7.422686 c -2.202351,4.08247 -4.920379,9.18837 -6.040068,11.34642 -1.119688,2.15806 -2.190446,3.9168 -2.379478,3.90831 -0.189023,-0.009 -0.755173,-0.28137 -1.258117,-0.60643 z m -9.540572,-5.49584 c -1.828397,-1.59803 -2.466223,-3.60248 -2.532615,-7.95908 -0.04893,-3.21092 0.105492,-4.61955 0.892108,-8.136684 2.368747,-10.591424 7.066337,-18.048501 11.293546,-17.927673 5.63435,0.16105 6.842868,10.072913 2.676932,21.955367 -1.168734,3.33357 -4.099102,8.78567 -5.611118,10.43978 -2.376677,2.60003 -4.905763,3.21295 -6.718853,1.62829 z m 4.709494,-4.79587 c 3.156743,-3.04046 6.307739,-14.056624 5.119428,-17.897944 -0.896763,-2.898857 -3.252365,-2.82229 -5.234604,0.170144 -3.719236,5.614638 -5.456618,16.29966 -2.969544,18.2629 0.898786,0.7095 1.988853,0.5204 3.08472,-0.5351 z m -11.613194,0.66708 c -3.525612,-1.64156 -5.094431,-7.93336 -4.218827,-16.919754 0.503055,-5.162877 1.282595,-8.985874 2.413582,-11.836604 2.081213,-5.245828 4.107916,-7.487044 6.726023,-7.437919 1.43266,0.02688 2.61054,0.814888 3.950788,2.643091 l 1.115847,1.522102 -1.042403,4.6891 c -0.573319,2.579004 -1.127792,4.683582 -1.23216,4.676839 -0.104367,-0.0068 -0.453351,-0.613624 -0.775518,-1.348625 -0.742199,-1.693264 -2.477038,-2.885432 -3.605881,-2.477935 -1.593716,0.575305 -3.045257,2.969311 -4.014425,6.620914 -0.861314,3.245241 -1.025097,11.232251 -0.265632,12.952721 0.773951,1.75322 2.11865,2.77008 3.48634,2.63637 1.269327,-0.1241 1.292841,-0.0129 0.588219,2.78191 -0.396344,1.57205 -0.587066,1.85518 -1.285982,1.9091 -0.451343,0.0348 -1.279337,-0.15027 -1.839991,-0.41131 z M 9.4066453,103.53079 6.8229348,101.95959 7.1674073,83.600889 C 7.3568671,73.503608 7.5860467,65.243586 7.6766989,65.245287 c 0.090651,0.0017 1.9073601,0.908257 4.0371311,2.01457 l 3.87231,2.011477 -0.251397,2.524179 c -0.138264,1.388299 -0.355514,3.395111 -0.482773,4.459587 l -0.231385,1.935413 -2.312691,-1.271217 C 11.035908,76.22013 9.934899,75.706162 9.8612,75.777145 c -0.3062436,0.294963 -0.475215,9.187422 -0.1768897,9.301033 0.1754657,0.06679 1.0696327,0.551243 1.9870367,1.076562 l 1.66801,0.955124 -0.179205,3.026399 c -0.09856,1.664521 -0.223462,3.073456 -0.277558,3.130966 -0.05409,0.05752 -0.938928,-0.390842 -1.966297,-0.996343 L 9.0483473,91.169974 9.0011,93.688023 C 8.975114,95.072948 8.8537052,96.662142 8.7313037,97.21956 8.520299,98.18047 8.6186967,98.29722 10.627897,99.47 l 2.119144,1.23695 -0.154495,2.20781 c -0.08496,1.2143 -0.255261,2.20319 -0.37842,2.19753 -0.123166,-0.005 -1.386594,-0.71734 -2.8076349,-1.5815 z" id="SvgjsPath1033" inkscape:connector-curvature="0"></path>
  <g id="SvgjsG1032" transform="matrix(1.0539049,-0.44130959,0.44130959,1.0539049,-22.168191,13.882939)">
    <path sodipodi:nodetypes="cccccccccc" inkscape:connector-curvature="0" id="SvgjsPath1031" d="m 17.92,65.92 c 0,2.56 6.4,3.84 12.8,3.84 6.4,0 14.08,-1.28 14.08,-3.84 0,-2.540436 -10.24,-19.565987 -10.24,-21.76 -0.11547,-2.309488 0,-10.24 0,-10.24 0,-1.28 1.28,0 1.28,-2.56 0,-1.28 -8.96,-1.28 -8.96,0 0,2.56 1.24057,1.712704 1.28,2.56 0.11809,2.537766 0,7.68 0,10.24 0,2.56 -10.24,19.2 -10.24,21.76 z" style="fill:none;stroke:#005172;stroke-width:2;stroke-linecap:butt;stroke-linejoin:miter;stroke-miterlimit:10;stroke-dasharray:none;stroke-opacity:1"></path>
    <path sodipodi:nodetypes="cccccc" inkscape:connector-curvature="0" id="SvgjsPath1030" d="m 20.48,65.92 c 0,3.84 21.76,2.56 21.76,0 0,-2.56 -5.12,-11.52 -5.12,-11.52 -3.84,0 -3.84,1.28 -7.68,1.28 -2.56,0 -2.56,-1.28 -3.84,-1.28 0,0 -5.12,8.96 -5.12,11.52 z" style="fill:#008a00;fill-opacity:0.98823529;stroke:none;stroke-width:1px;stroke-linecap:butt;stroke-linejoin:miter;stroke-miterlimit:10;stroke-opacity:1"></path>
  </g>
</svg><style>@media (prefers-color-scheme: light) { :root { filter: none; } }
@media (prefers-color-scheme: dark) { :root { filter: none; } }
</style></svg>