<?xml version="1.0" encoding="UTF-8" standalone="no"?>
<!DOCTYPE svg PUBLIC "-//W3C//DTD SVG 1.1//EN"
 "http://www.w3.org/Graphics/SVG/1.1/DTD/svg11.dtd">
<!-- Generated by graphviz version 2.40.1 (20161225.0304)
 -->
<!-- Title: ProTracker modules Pages: 1 -->
<svg width="636pt" height="44pt"
 viewBox="0.00 0.00 636.00 26.00" xmlns="http://www.w3.org/2000/svg" xmlns:xlink="http://www.w3.org/1999/xlink">
<g id="graph0" class="graph" transform="scale (0.6 0.6) rotate(0) translate(4 40)">
<title>ProTracker modules</title>
<polygon fill="#ffffff" stroke="transparent" points="-4,4 -4,-40 632,-40 632,4 -4,4"/>
<!-- build -->
<g id="node1" class="node">
<title>build</title>
<path fill="#ffffff" stroke="#000000" d="M118,-36C118,-36 12,-36 12,-36 6,-36 0,-30 0,-24 0,-24 0,-12 0,-12 0,-6 6,0 12,0 12,0 118,0 118,0 124,0 130,-6 130,-12 130,-12 130,-24 130,-24 130,-30 124,-36 118,-36"/>
<text text-anchor="middle" x="65" y="-22.2" font-family="Helvetica,sans-Serif" font-size="14.00" fill="#000000">build database</text>
<text text-anchor="middle" x="65" y="-5.4" font-family="Helvetica,sans-Serif" font-size="14.00" fill="#000000">from EPA files</text>
</g>
<!-- query -->
<g id="node2" class="node">
<title>query</title>
<path fill="#ffffff" stroke="#000000" d="M284,-36C284,-36 178,-36 178,-36 172,-36 166,-30 166,-24 166,-24 166,-12 166,-12 166,-6 172,0 178,0 178,0 284,0 284,0 290,0 296,-6 296,-12 296,-12 296,-24 296,-24 296,-30 290,-36 284,-36"/>
<text text-anchor="middle" x="231" y="-13.8" font-family="Helvetica,sans-Serif" font-size="14.00" fill="#000000">query database</text>
</g>
<!-- build&#45;&gt;query -->
<g id="edge1" class="edge">
<title>build&#45;&gt;query</title>
<path fill="none" stroke="#000000" d="M130.1312,-18C130.1312,-18 155.7842,-18 155.7842,-18"/>
<polygon fill="#000000" stroke="#000000" points="155.7842,-21.5001 165.7842,-18 155.7842,-14.5001 155.7842,-21.5001"/>
</g>
<!-- post -->
<g id="node3" class="node">
<title>post</title>
<path fill="#ffffff" stroke="#000000" d="M450,-36C450,-36 344,-36 344,-36 338,-36 332,-30 332,-24 332,-24 332,-12 332,-12 332,-6 338,0 344,0 344,0 450,0 450,0 456,0 462,-6 462,-12 462,-12 462,-24 462,-24 462,-30 456,-36 450,-36"/>
<text text-anchor="middle" x="397" y="-22.2" font-family="Helvetica,sans-Serif" font-size="14.00" fill="#000000">post process/</text>
<text text-anchor="middle" x="397" y="-5.4" font-family="Helvetica,sans-Serif" font-size="14.00" fill="#000000">cleanup</text>
</g>
<!-- query&#45;&gt;post -->
<g id="edge2" class="edge">
<title>query&#45;&gt;post</title>
<path fill="none" stroke="#000000" d="M296.1312,-18C296.1312,-18 321.7842,-18 321.7842,-18"/>
<polygon fill="#000000" stroke="#000000" points="321.7842,-21.5001 331.7842,-18 321.7842,-14.5001 321.7842,-21.5001"/>
</g>
<!-- ana -->
<g id="node4" class="node">
<title>ana</title>
<path fill="#ffffff" stroke="#000000" d="M616,-36C616,-36 510,-36 510,-36 504,-36 498,-30 498,-24 498,-24 498,-12 498,-12 498,-6 504,0 510,0 510,0 616,0 616,0 622,0 628,-6 628,-12 628,-12 628,-24 628,-24 628,-30 622,-36 616,-36"/>
<text text-anchor="middle" x="563" y="-13.8" font-family="Helvetica,sans-Serif" font-size="14.00" fill="#000000">further analyses</text>
</g>
<!-- post&#45;&gt;ana -->
<g id="edge3" class="edge">
<title>post&#45;&gt;ana</title>
<path fill="none" stroke="#000000" d="M462.1312,-18C462.1312,-18 487.7842,-18 487.7842,-18"/>
<polygon fill="#000000" stroke="#000000" points="487.7842,-21.5001 497.7842,-18 487.7842,-14.5001 487.7842,-21.5001"/>
</g>
</g>
</svg>

