<?xml version="1.0" encoding="UTF-8" standalone="no"?>
<svg
   viewBox="0 0 124.44 144.00"
   id="svg2"
   version="1.1"
   sodipodi:docname="logo_new.svg"
   inkscape:version="1.2.2 (732a01da63, 2022-12-09)"
   xml:space="preserve"
   inkscape:export-filename="logo_new.png"
   inkscape:export-xdpi="96"
   inkscape:export-ydpi="96"
   xmlns:inkscape="http://www.inkscape.org/namespaces/inkscape"
   xmlns:sodipodi="http://sodipodi.sourceforge.net/DTD/sodipodi-0.dtd"
   xmlns="http://www.w3.org/2000/svg"
   xmlns:svg="http://www.w3.org/2000/svg"
   xmlns:rdf="http://www.w3.org/1999/02/22-rdf-syntax-ns#"
   xmlns:cc="http://creativecommons.org/ns#"
   xmlns:dc="http://purl.org/dc/elements/1.1/"><metadata
     id="metadata159"><rdf:RDF><cc:Work
         rdf:about=""><dc:format>image/svg+xml</dc:format><dc:type
           rdf:resource="http://purl.org/dc/dcmitype/StillImage" /><dc:title /></cc:Work></rdf:RDF></metadata><sodipodi:namedview
     pagecolor="#ffffff"
     bordercolor="#666666"
     borderopacity="1"
     objecttolerance="10"
     gridtolerance="10"
     guidetolerance="10"
     inkscape:pageopacity="0"
     inkscape:pageshadow="2"
     inkscape:window-width="1920"
     inkscape:window-height="991"
     id="namedview157"
     showgrid="true"
     inkscape:zoom="1.754102"
     inkscape:cx="105.18202"
     inkscape:cy="117.72405"
     inkscape:window-x="-9"
     inkscape:window-y="-9"
     inkscape:window-maximized="1"
     inkscape:current-layer="svg2"
     showguides="false"
     inkscape:showpageshadow="2"
     inkscape:pagecheckerboard="0"
     inkscape:deskcolor="#d1d1d1"><inkscape:grid
       type="xygrid"
       id="grid861"
       spacingx="0.16"
       spacingy="0.16"
       empspacing="4"
       units="pc" /></sodipodi:namedview><defs
     id="defs4"><style
       type="text/css"
       id="style6">
    line, polyline, path, rect, circle {
      fill: none;
      stroke: #000000;
      stroke-linecap: round;
      stroke-linejoin: round;
      stroke-miterlimit: 10.00;
    }
  </style></defs><rect
     width="100%"
     height="100%"
     style="stroke: none; fill: none;"
     id="rect8" /><rect
     x="0.00"
     y="0.14"
     width="124.44"
     height="143.71"
     style="stroke-width: 1.07; stroke: none;"
     clip-path="url(#cpMHwxMjQuNDQxfDE0My44NTd8MC4xNDMxMzc=)"
     id="rect15" /><rect
     x="-0.14"
     y="0.14"
     width="124.58"
     height="143.85"
     style="stroke-width: 1.07; stroke: none;"
     clip-path="url(#cpMHwxMjQuNDQxfDE0My45OTd8MC4xNDMxMzc=)"
     id="rect27" /><polyline
     points="2.285 37.429 2.285 106.799 62.105 141.486 121.926 106.799 121.926 37.429 62.105 2.743 2.285 37.429"
     style="stroke:#008a00;stroke-width:4;fill:#ffffff;fill-opacity:1;fill-rule:nonzero;stroke-opacity:0.99004978"
     clip-path="url(#cpMHwxMjQuNDQxfDE0My45OTd8MC4xNDMxMzc=)"
     id="polyline29" /><g
     id="g15409-5"
     transform="matrix(0.11648241,0,0,0.11648241,124.45111,58.359387)"><path
       style="fill:#003b52;fill-opacity:1;stroke:none;stroke-linecap:round;stroke-linejoin:round;stroke-miterlimit:10"
       d="m -424.52773,-12.74043 c 0,-0.92248 2.6987,-19.48065 12.49609,-85.932052 1.97802,-13.416038 4.19469,-25.824698 4.92592,-27.574788 1.6287,-3.89802 7.22966,-8.65406 12.29972,-10.44428 6.53966,-2.30912 9.21479,-6.24693 6.02827,-8.87364 -0.6875,-0.56672 -6.425,-1.77577 -12.75,-2.68677 -6.325,-0.91101 -52.66895,-7.71896 -102.98656,-15.12878 -83.49303,-12.29527 -91.59097,-13.3296 -92.68165,-11.83802 -1.73751,2.37619 -0.50251,4.60675 5.56196,10.04559 5.80531,5.20641 8.10625,9.37255 8.10625,14.67736 0,2.79065 -3.5042,24.2354 -17.14022,104.89338 l -1.12885,6.67726 -4.162,-5.67726 c -2.28911,-3.12249 -5.61696,-7.8028 -7.39525,-10.4007 l -3.23323,-4.72346 7.50414,-44.77654 7.50414,-44.77655 -5.07943,-5 c -7.12477,-7.01336 -9.28697,-11.53129 -9.33231,-19.5 -0.0614,-10.78647 5.56896,-18.11778 16.05421,-20.9043 4.57928,-1.21698 4.25239,-1.25682 72.9088,8.88587 22.55,3.33134 63.9051,9.42016 91.90022,13.53072 56.41195,8.28303 56.41439,8.28368 62.12932,16.53032 3.31923,4.78966 4.51487,14.26281 2.55113,20.21298 -1.79871,5.45016 -7.3693,11.13901 -13.98321,14.28006 -6.87016,3.26276 -6.11686,1.41398 -9.15333,22.464348 -1.15038,7.975 -3.82575,26.420752 -5.94528,40.990552 l -3.85369,26.49056 -3.32258,2.90916 c -1.82742,1.60004 -6.58508,6.00189 -10.57258,9.7819 -3.9875,3.78001 -7.25,6.42019 -7.25,5.86708 z"
       id="path11676-7" /><path
       style="fill:#003b52;fill-opacity:1;stroke:none;stroke-linecap:round;stroke-linejoin:round;stroke-miterlimit:10"
       d="m -527.19089,73.70596 c -13.9992,-8.39124 -9.1457,-30.59225 7.22463,-33.04713 8.43487,-1.26489 17.39792,5.49766 19.0651,14.38445 0.79692,4.24797 -0.9065,11.35706 -3.64169,15.19828 -4.45452,6.25579 -15.23898,7.90546 -22.64804,3.4644 z"
       id="path11674-5" /><path
       style="fill:#003b52;fill-opacity:1;stroke:none;stroke-linecap:round;stroke-linejoin:round;stroke-miterlimit:10"
       d="m -568.95609,485.97032 c -2.60283,-17.16582 -10.13351,-54.15688 -13.07978,-64.24851 -7.058,-24.17521 -15.38963,-38.3275 -37.08976,-63.00149 -32.36845,-36.80432 -47.4021,-75.78523 -47.4021,-122.90937 0,-29.43277 6.26851,-55.44452 19.66233,-81.59063 15.90238,-31.04308 37.86122,-53.62871 66.43364,-68.32995 5.72222,-2.94423 11.80013,-5.82789 13.50647,-6.40813 2.77888,-0.94497 3.284,-1.76976 4.84337,-7.90846 2.45393,-9.66035 3.03623,-20.8265 1.57567,-30.2154 l -1.25168,-8.04616 -10.39834,-9.29595 c -22.83178,-20.4112396 -43.77474,-46.45842 -69.7957,-86.80631 -41.15265,-63.81096 -50.59601,-77.19631 -63.13491,-89.48964 -11.79391,-11.56293 -27.92613,-20.45294 -34.66802,-19.10457 -7.04726,1.40946 -28.25407,12.80882 -40.00759,21.50541 -10.56286,7.81561 -35.06278,48.54078 -48.43408,80.50993 -4.53189,10.83519 -3.22417,4.29601 2.18197,-10.910772 6.95129,-19.55314 10.20609,-27.166818 18.56042,-43.416898 4.35929,-8.4793 7.72465,-15.61824 7.47857,-15.86431 -1.37925,-1.37925 -33.76882,17.84974 -48.05212,28.52751 l -6,4.48542 6,-6.19124 c 11.76473,-12.13973 31.19503,-26.25501 49.22532,-35.76011 4.82607,-2.54417 12.37468,-7.2131 16.77468,-10.37539 4.4,-3.16229 11.95079,-8.22481 16.77953,-11.25004 4.82873,-3.02522 8.37045,-5.75323 7.87047,-6.06224 -2.08461,-1.28835 -38.20016,-1.80072 -49.96827,-0.70889 -14.55574,1.35046 -39.4718,6.42935 -43.11563,8.78868 -12.35835,8.00189 -30.43169,22.98071 -43.8161,36.31389 -5.0875,5.06803 -9.25,8.87642 -9.25,8.46309 0,-1.55789 15.74292,-20.03997 26.42919,-31.0277 6.10962,-6.28197 10.64555,-11.42177 10.07983,-11.42177 -5.95369,0 -49.49399,14.5449 -73.00902,24.38911 -9.58016,4.01059 0.83131,-1.95463 19,-10.88599 22.19466,-10.91044 37.02217,-16.4537 66.25,-24.76752 11.6875,-3.3245 21.24135,-6.31253 21.23077,-6.64007 -0.0427,-1.32141 -55.93604,-18.14462 -75.34878,-22.67905 -18.82302,-4.39668 4.86184,-1.64374 31.86801,3.70409 8.25,1.63368 24.9,5.53738 37,8.67488 19.99675,5.18511 22.86504,5.68813 31.5,5.52421 28.24461,-0.53616 50.12696,-0.32925 55,0.52006 6.32303,1.10203 7.34373,0.71165 4.33533,-1.65811 -1.17414,-0.92489 -7.46742,-5.99417 -13.98506,-11.26507 -6.51765,-5.27091 -12.97527,-10.30726 -14.35027,-11.1919 -5.66495,-3.64466 -46.31494,-11.69264 -59.29803,-11.73995 -2.31108,-0.008 -4.87697,-0.45153 -5.70197,-0.98469 -3.17547,-2.05214 43.18249,-0.57973 50.25,1.59603 0.9625,0.29631 1.75,0.11655 1.75,-0.39947 0,-1.45187 -21.22917,-19.66386 -53.0431,-45.50439 -12.20137,-9.91043 34.15602,21.35403 53.0431,35.77345 9.075,6.92835 24.6,18.73204 34.5,26.23043 9.9,7.49838 21.42339,16.44423 25.60754,19.87965 4.18414,3.43542 9.80914,7.37354 12.5,8.75136 2.69085,1.37783 7.33264,4.34021 10.31508,6.58308 2.98245,2.24287 5.58864,3.91193 5.79155,3.70902 0.20291,-0.20291 -1.67034,-8.48943 -4.16277,-18.4145 -3.80215,-15.1404 -7.52641,-26.69065 -21.50825,-66.70466 -0.57655,-1.65 -2.11648,-6.6 -3.42208,-11 -1.3056,-4.4 -5.8331,-18.95885 -10.06112,-32.35299 -4.22802,-13.39415 -7.53482,-24.50548 -7.34844,-24.69185 0.41337,-0.41337 24.53787,57.57821 33.67035,80.93831 7.5776,19.38286 6.96096,19.60118 9.58471,-3.39347 0.90996,-7.975 3.23146,-22.36671 5.15888,-31.98159 3.48926,-17.40612 5.15162,-23.03684 3.99104,-13.51841 -0.3353,2.75 -1.33673,17.825 -2.22539,33.5 -2.44318,43.09509 -1.59407,52.70127 7.0714,80 6.22232,19.60212 8.96147,25.12828 25.03134,50.5 8.70893,13.75 18.96389,29.949998 22.78879,35.999998 18.33011,28.993452 38.71243,57.568072 52.78432,74.000002 8.39101,9.7982804 27.80713,29.07375 32.13319,31.90041 2.65259,1.7332 2.77588,1.71236 7,-1.18354 27.13232,-18.6008996 61.27599,-17.0929496 83.97748,3.70884 l 6.51642,5.97111 11.36575,-8.52921 c 19.01201,-14.2671996 29.70134,-24.0849596 74.44022,-68.37062 23.65,-23.41042 47.14956,-46.036002 52.22126,-50.27906 12.0759,-10.10304 28.5661,-28.71248 34.5278,-38.9652 7.9775,-13.71953 24.1523,-56.84621 30.7599,-82.01476 1.2652,-4.81911 2.4771,-8.58526 2.6931,-8.36922 0.2161,0.21604 -0.771,7.40924 -2.1935,15.98489 -2.9545,17.81145 -9.8912,46.14491 -14.3528,58.62537 -1.6671,4.66345 -2.9301,8.57998 -2.8067,8.7034 0.2251,0.2251 24.3028,-18.96583 56.7726,-45.25015 9.5581,-7.73725 23.9033,-18.94619 31.8783,-24.90876 7.97499,-5.96256 15.06249,-11.27468 15.74999,-11.8047 0.6875,-0.53003 1.25,-0.76213 1.25,-0.51577 0,0.24635 -4.6125,4.64275 -10.25,9.76977 -16.40919,14.92335 -41.74999,39.14612 -41.74999,39.90801 0,0.38467 5.0625,0.14086 11.25,-0.54181 6.1875,-0.68266 18.675,-1.20842 27.75,-1.16834 l 16.49999,0.0729 -11,1.32674 c -14.60139,1.76112 -26.14819,3.89438 -42.60399,7.87105 l -13.604,3.28753 -10.4848,8.88558 c -32.374,27.43628 -48.5643,42.41833 -45.7654,42.34996 0.8021,-0.0196 4.1582,-0.68756 7.4582,-1.48438 8.3788,-2.02312 23.2499,-1.83071 36.7389,0.47536 l 11.4377,1.95536 12.4328,-2.85931 c 28.2822,-6.5044 35.7506,-9.29808 78.78589,-29.47124 10.1174,-4.74261 18.5132,-8.50081 18.6573,-8.35155 0.1441,0.14926 -10.1288,6.54389 -22.8286,14.21028 -12.6998,7.6664 -22.6706,14.06036 -22.1573,14.2088 0.5133,0.14844 7.6833,1.62987 15.9333,3.29206 16.8011,3.38505 36.1499,8.22476 30,7.5039 -23.0248,-2.6989 -31.9164,-3.53039 -43.8368,-4.09943 l -13.9259,-0.66478 -18.34109,5.91027 c -10.0875,3.25066 -18.3534,6.19319 -18.3686,6.53896 -0.015,0.34577 1.4349,1.20112 3.2224,1.90076 3.5024,1.37085 49.73799,23.789118 61.24999,29.698238 15.7623,8.090852 50.8355,29.670542 56.000005,34.455442 0.55,0.50958 -7.325005,-3.33915 -17.500005,-8.55273 -17.8305,-9.13621 -45.918,-22.04572 -46.5627,-21.40104 -0.1719,0.17196 1.9838,3.87618 4.7905,8.23159 8.0751,12.53065 18.04,32.7071 25.2076,51.03906 2.0996,5.3699 0.7139,3.22203 -7.0962,-11 -8.4845,-15.45008 -21.3033,-34.72581 -30.2389,-45.47078 -7.7042,-9.264252 -9.5099,-10.423452 -29.71859,-19.078652 -23.7442,-10.169418 -42.0835,-15.950608 -50.5993,-15.950608 h -3.0868 l 5.4576,5.75 c 3.0017,3.162498 8.8739,10.024998 13.0495,15.249998 4.1755,5.225 9.9263,11.750002 12.7796,14.500002 11.1977,10.79258 26.7803,30.82899 36.9415,47.5 5.51449,9.04731 4.20229,7.96347 -5.3543,-4.42268 -7.2096,-9.3441 -30.0957,-33.31765 -30.9899,-32.46232 -0.3536,0.33825 0.6898,6.63825 2.3186,14 3.3338,15.06725 6.6695,36.40816 7.5628,48.38500043 0.3282,4.39999997 0.8522,10.47499957 1.1644,13.49999957 1.0451,10.12557 -0.5708,4.51665 -3.1889,-11.0690496 -3.9799,-23.6929704 -15.2794,-65.1345604 -20.4536,-75.0149604 -3.8812,-7.411152 -20.0576,-24.215692 -31.3934,-32.61234 -5.5519,-4.1124 -6.189,-4.3375 -10.5,-3.70975 -7.5753,1.1031 -17.1147,4.36051 -25.5895,8.738058 -15.9793,8.25393 -25.9134,16.91981 -69.49996,60.627312 -39.53476,39.64444043 -58.32493,57.00152 -76.80453,70.94678 -4.56748,3.44676 -8.08294,6.79044 -7.81213,7.43039 0.27081,0.63996 2.55972,7.43873 5.08647,15.10838 19.44748,59.03067 24.4059,119.77175 14.53366,178.03884 -5.97538,35.26736 -21.41861,75.67685 -38.79634,101.51634 -10.98244,16.33013 -18.96979,25.64738 -35.19311,41.05277 -19.634,18.6441 -26.06465,27.31293 -33.34244,44.94723 -4.48713,10.87245 -13.67334,41.31677 -18.10429,60 -3.05644,12.8876 -3.44599,13.913 -3.50307,9.2216 -0.0929,-7.63773 2.65566,-32.90165 4.99743,-45.93423 3.81909,-21.25426 10.4911,-41.34065 18.69675,-56.28737 1.96265,-3.575 8.02656,-14.51268 13.47537,-24.30595 14.45174,-25.97448 27.62809,-52.89514 35.09074,-71.69405 10.56359,-26.61038 13.76161,-40.02377 10.2394,-42.94695 -2.05382,-1.70452 -4.67825,-0.0791 -13.23678,8.1982 -6.11993,5.91882 -7.35324,7.69398 -8.40168,12.09295 -0.67586,2.83569 -2.01817,7.00667 -2.98291,9.26885 -4.06014,9.52047 -21.31179,33.20395 -33.78941,46.38695 l -5.20572,5.5 7.35678,-11.5 c 12.30878,-19.24089 26.21118,-47 23.53868,-47 -1.83916,0 -18.19758,10.33841 -33.22819,21 -1.16308,0.825 0.81031,-1.80239 4.38531,-5.83865 7.8663,-8.88124 20.27876,-19.87835 28.7174,-25.44286 3.41957,-2.25489 7.59455,-6.01745 9.27772,-8.36123 l 3.06033,-4.26143 -12.27773,0.47299 c -6.75274,0.26014 -15.31522,0.6624 -19.02772,0.8939 -3.7125,0.2315 -6.75,0.24587 -6.75,0.0319 0,-0.72424 24.4175,-8.33694 38.5,-12.00323 7.7,-2.00465 16.7751,-3.7228 20.16688,-3.81812 3.39178,-0.0953 6.37989,-0.3983 6.64024,-0.6733 1.55431,-1.6418 2.69088,-25.67222 1.7534,-37.07236 -1.23971,-15.07556 -3.70337,-24.4173 -9.72095,-36.86015 -3.78439,-7.82517 -5.94865,-10.80725 -12.70065,-17.5 -9.75027,-9.6647 -18.32992,-14.74432 -35.64785,-21.10546 -18.26012,-6.70723 -25.7331,-12.1663 -31.76091,-23.20157 l -2.862,-5.23955 -8.90369,4.58152 c -39.88096,20.52127 -68.36326,59.52624 -77.47787,106.1017 -2.9743,15.19863 -3.7368,41.11471 -1.64589,55.9409 5.20677,36.92016 16.10181,59.34494 45.59925,93.85497 24.82226,29.04038 33.65579,48.02232 37.54308,80.67443 1.52678,12.82458 3.37428,63.82557 2.31206,63.82557 -0.2847,0 -1.28526,-5.0625 -2.22346,-11.25 z m 79.44084,-149.70897 c 23.69081,-31.57511 39.23697,-72.56716 45.52533,-120.04103 2.56005,-19.32709 3.07045,-57.14685 1.02584,-76.01428 -3.69376,-34.08568 -13.70824,-75.51986 -23.55988,-97.47731 -5.08281,-11.32864 -15.32347,-20.0879 -28.81333,-24.64526 -14.01099,-4.73341 -33.23005,-1.80779 -47.12632,7.1738 -5.72355,3.69931 -6.22193,4.29743 -5.63329,6.7607 0.35517,1.48629 0.89809,8.10235 1.20649,14.70235 0.46892,10.0352 0.20516,13.63734 -1.61091,22 -3.21476,14.80336 -3.50625,18.67142 -1.67404,22.21452 4.27444,8.26585 10.24608,12.27493 27.14763,18.22567 52.98538,18.65523 73.71771,64.60544 60.39234,133.85092 -3.28528,17.07205 -13.93407,47.98167 -24.18792,70.20889 -7.59955,16.4735 -12.74558,26.97154 -17.60673,35.91816 -2.80373,5.16007 -5.07646,9.65193 -5.05051,9.9819 0.10103,1.28475 12.51074,-12.92359 19.9653,-22.85903 z"
       id="path11672-2" /><path
       style="fill:#008a00;fill-opacity:0.75686276;stroke:none;stroke-linecap:round;stroke-linejoin:round;stroke-miterlimit:10"
       d="m -613.02773,510.16322 c -39.18172,-4.8565 -81.29998,-9.9039 -137,-16.4181 -16.5,-1.9297 -32.65522,-4.2079 -35.90049,-5.0627 -11.23,-2.958 -19.49709,-9.57222 -24.95034,-19.9621 -2.98389,-5.6851 -3.14917,-6.5838 -3.14917,-17.12354 v -11.12353 l 4.43498,-8.62647 4.43499,-8.62646 h 107.31501 c 59.02326,0 107.31502,0.29354 107.31502,0.65231 0,0.35877 1.99328,9.92127 4.42952,21.25 6.52768,30.35438 13.63983,70.33669 12.44931,69.98619 -0.20836,-0.061 -17.92883,-2.2869 -39.37883,-4.9456 z"
       id="path11670-4" /><path
       style="fill:#008a00;fill-opacity:0.75686276;stroke:none;stroke-linecap:round;stroke-linejoin:round;stroke-miterlimit:10"
       d="m -394.02773,536.57392 c -1.1,-0.2058 -14.825,-1.8966 -30.5,-3.7575 -94.62076,-11.2328 -132.60434,-15.9856 -133.3973,-16.6917 -1.44782,-1.2892 14.13539,-60.21382 22.18936,-83.9044 l 2.8897,-8.5 85.61908,-0.25558 85.61908,-0.25557 1.01974,3.78702 c 0.56085,2.08286 4.0485,15.69787 7.75031,30.25557 6.27484,24.6763 6.73194,27.21336 6.75061,37.46856 0.018,9.8603 -0.27462,11.7012 -2.82392,17.7682 -3.7211,8.8558 -10.08596,15.8533 -17.93183,19.7141 -8.19862,4.0344 -19.37643,5.8317 -27.18483,4.3713 z"
       id="path11668-3" /><path
       style="fill:#003b52;fill-opacity:1;stroke:none;stroke-linecap:round;stroke-linejoin:round;stroke-miterlimit:10"
       d="m -392.52773,566.49062 c -4.78061,-0.4272 -39.27149,-4.5376 -132.5,-15.7904 -136.08198,-16.4254 -192.85822,-23.2663 -228.3954,-27.5188 -20.35353,-2.4357 -37.09172,-4.9416 -41,-6.1384 -30.44238,-9.3217 -49.1046,-33.95756 -49.1046,-64.8227 0,-12.6252 2.61029,-22.74483 8.87922,-34.42311 2.67987,-4.99229 7.79443,-14.47689 11.36568,-21.07689 7.784,-14.38555 39.71342,-74.36524 70.00234,-131.5 12.10024,-22.825 31.22815,-58.825 42.50645,-80 11.27831,-21.175 28.15992,-52.9 37.51471,-70.5 9.35478,-17.6 21.95351,-41.225 27.99717,-52.5 l 10.98847,-20.5 5.38376,-32.4274396 c 2.96106,-17.8351 5.54059,-32.5842804 5.73227,-32.7759704 0.28663,-0.28662 7.74885,9.015 13.47965,16.8023204 1.8218,2.47555 -5.79015,52.4086996 -8.73284,57.2860396 -1.03369,1.71328 -8.0766,14.81505 -15.65091,29.11505 -23.31288,44.01381 -36.49558,68.84714 -84.40468,159 -25.42849,47.85 -50.7567,95.55 -56.28492,106 -5.52822,10.45 -18.51911,34.76245 -28.86864,54.02767 -11.71268,21.80266 -19.40073,37.2675 -20.36253,40.96009 -5.33749,20.49204 3.45994,42.81244 20.90338,53.03494 12.24107,7.1738 7.01405,6.3384 131.55142,21.0254 16.225,1.9134 36.475,4.3464 45,5.4067 8.525,1.0602 23.15,2.8451 32.5,3.9663 39.40193,4.7251 78.45689,9.4552 133.5,16.1688 68.32677,8.3338 80.57487,9.1537 90.64606,6.0681 21.24889,-6.5102 35.35391,-25.9708 35.35391,-48.7776 0,-9.0268 -0.7714,-12.5121 -22.32948,-100.8804 -14.04343,-57.56523 -35.59042,-147.0183 -47.69319,-198 -10.74137,-45.24692 -21.65568,-90.79287 -27.16872,-113.37636 -2.83124,-11.59781 -3.8365,-17.57963 -3.44509,-20.5 4.70692,-35.11947 4.88766,-36.03349 7.5365,-38.11299 1.40862,-1.10586 5.71987,-4.81964 9.58057,-8.25285 3.86069,-3.4332 7.27435,-6.2457 7.5859,-6.25 0.68549,-0.009 0.0717,5.04855 -4.0187,33.11499 l -3.15128,21.6228 4.59494,18.8772 c 2.52721,10.38247 5.9113,24.27721 7.52018,30.87721 2.40281,9.85684 10.18506,42.31761 17.50126,73 14.34604,60.16382 31.57998,131.99936 39.82478,166 5.73487,23.65 12.54523,51.775 15.13423,62.5 2.5889,10.725 7.2244,29.625 10.3011,42 5.5055,22.14422 5.595,22.73719 5.6605,37.5 0.063,14.3149 -0.074,15.3936 -3.0188,23.6178 -10.8757,30.3779 -40.14987,49.0354 -72.41467,46.1525 z"
       id="path11666-3" /></g></svg>
